<svg width="2266" height="374" viewBox="0 0 2266 374" fill="none" xmlns="http://www.w3.org/2000/svg">
<rect y="41.5" width="452" height="332" fill="#00A4D5"/>
<path d="M40 0H492V332H40V0Z" fill="#E4E4E4"/>
<path d="M633.8 314.7C592.1 314.7 565.1 281.7 565.1 226.5C565.1 171.9 599.3 138.3 635.6 138.3C654.5 138.3 666.2 145.5 678.2 156.6L676.7 130.2V71.1H720.5V310.5H684.8L681.5 293.1H680.3C668 305.1 651.2 314.7 633.8 314.7ZM645.2 278.4C656.9 278.4 666.8 273.6 676.7 261V187.2C666.5 177.9 655.7 174.6 645.2 174.6C626.3 174.6 610.4 192.6 610.4 226.2C610.4 261 623 278.4 645.2 278.4ZM840.966 314.7C793.866 314.7 757.266 282 757.266 226.5C757.266 172.2 795.666 138.3 835.566 138.3C881.766 138.3 905.766 172.2 905.766 218.4C905.766 226.8 904.866 234.9 903.666 238.8H800.166C803.766 266.4 821.766 280.8 846.666 280.8C860.466 280.8 872.466 276.6 884.466 269.1L899.466 296.1C882.966 307.5 861.666 314.7 840.966 314.7ZM799.566 209.4H867.966C867.966 186.9 857.766 172.5 836.166 172.5C818.466 172.5 802.866 185.1 799.566 209.4ZM979.381 314.7C949.381 314.7 929.581 293.4 929.581 264.9C929.581 228.9 958.681 210 1026.48 202.8C1025.58 186.3 1018.38 173.7 997.681 173.7C982.081 173.7 967.081 180.6 951.481 189.6L935.581 160.5C955.381 148.2 979.381 138.3 1005.78 138.3C1048.38 138.3 1070.28 163.8 1070.28 212.4V310.5H1034.28L1031.28 292.5H1030.08C1015.38 305.1 998.581 314.7 979.381 314.7ZM993.781 280.2C1006.38 280.2 1015.68 274.2 1026.48 263.7V229.8C985.381 234.9 971.581 246.3 971.581 261.3C971.581 274.5 980.881 280.2 993.781 280.2ZM1156.63 314.7C1126.03 314.7 1115.23 294.6 1115.23 263.4V71.1H1159.33V265.2C1159.33 275.4 1163.83 278.7 1168.03 278.7C1169.83 278.7 1171.03 278.7 1174.03 278.1L1179.43 310.8C1174.33 312.9 1167.13 314.7 1156.63 314.7ZM1283.06 314.7C1235.96 314.7 1199.36 282 1199.36 226.5C1199.36 172.2 1237.76 138.3 1277.66 138.3C1323.86 138.3 1347.86 172.2 1347.86 218.4C1347.86 226.8 1346.96 234.9 1345.76 238.8H1242.26C1245.86 266.4 1263.86 280.8 1288.76 280.8C1302.56 280.8 1314.56 276.6 1326.56 269.1L1341.56 296.1C1325.06 307.5 1303.76 314.7 1283.06 314.7ZM1241.66 209.4H1310.06C1310.06 186.9 1299.86 172.5 1278.26 172.5C1260.56 172.5 1244.96 185.1 1241.66 209.4ZM1384.17 310.5V142.5H1420.17L1423.47 172.2H1424.37C1436.67 150.3 1454.67 138.3 1472.07 138.3C1481.37 138.3 1486.77 139.8 1491.87 141.9L1484.37 180C1478.37 178.2 1473.57 177.3 1466.67 177.3C1453.47 177.3 1437.57 186 1428.27 210.3V310.5H1384.17ZM1600.44 233.3L1596.04 249.5H1631.24L1626.84 233.3C1622.24 217.9 1618.24 200.9 1614.04 184.9H1613.04C1609.24 201.1 1604.84 217.9 1600.44 233.3ZM1549.24 310.5L1596.64 162.3H1631.44L1679.04 310.5H1648.04L1637.64 272.5H1589.64L1579.24 310.5H1549.24ZM1765.62 313.3C1725.42 313.3 1694.62 286.5 1694.62 237.1C1694.62 188.3 1726.22 159.7 1765.62 159.7C1787.02 159.7 1801.82 168.9 1811.42 178.7L1795.82 197.5C1788.42 190.5 1780.02 185.1 1766.62 185.1C1742.02 185.1 1724.82 204.3 1724.82 236.1C1724.82 268.3 1739.62 287.7 1768.82 287.7C1775.82 287.7 1783.02 285.7 1787.22 282.1V252.9H1761.02V228.7H1813.62V295.5C1803.62 305.3 1786.22 313.3 1765.62 313.3ZM1853.38 310.5V162.3H1944.18V187.1H1882.98V221.3H1934.98V246.1H1882.98V285.7H1946.38V310.5H1853.38ZM1984.43 310.5V162.3H2014.63L2057.63 241.3L2072.43 273.3H2073.43C2072.03 257.9 2069.63 238.3 2069.63 221.5V162.3H2097.63V310.5H2067.63L2024.83 231.3L2009.83 199.5H2008.83C2010.23 215.5 2012.43 234.1 2012.43 251.1V310.5H1984.43ZM2171.64 310.5V187.1H2130.04V162.3H2243.24V187.1H2201.24V310.5H2171.64Z" fill="#2C2C2C"/>
</svg>
